<?xml version="1.0" standalone="no"?>
<!DOCTYPE svg PUBLIC "-//W3C//DTD SVG 20010904//EN"
 "http://www.w3.org/TR/2001/REC-SVG-20010904/DTD/svg10.dtd">
<svg version="1.0" xmlns="http://www.w3.org/2000/svg"
 width="1116.000000pt" height="1280.000000pt" viewBox="0 0 1116.000000 1280.000000"
 preserveAspectRatio="xMidYMid meet">
<metadata>
Created by potrace 1.15, written by Peter Selinger 2001-2017
</metadata>
<g transform="translate(0.000000,1280.000000) scale(0.100000,-0.100000)"
fill="#000000" stroke="none">
<path d="M5549 12787 c-89 -25 -146 -87 -219 -238 -109 -226 -214 -677 -279
-1199 -41 -324 -44 -405 -50 -1331 l-6 -916 -25 -31 c-14 -17 -299 -270 -635
-562 -634 -551 -654 -567 -710 -542 -50 23 -59 54 -65 213 -5 140 -6 149 -30
174 -44 48 -70 55 -192 55 -130 0 -169 -14 -203 -71 -19 -32 -20 -55 -23 -471
l-3 -437 -585 -520 c-607 -540 -625 -554 -673 -524 -38 24 -46 63 -51 263 -6
216 -10 231 -73 271 -28 18 -47 19 -164 17 l-133 -3 -37 -38 -38 -37 -3 -453
-3 -454 -613 -529 c-337 -291 -627 -548 -644 -571 -81 -108 -90 -164 -91 -564
-1 -197 1 -217 17 -232 10 -10 30 -17 43 -17 15 0 146 74 314 176 980 596
1868 1105 2330 1336 423 212 951 405 1610 587 336 93 509 133 573 135 58 1 66
-1 88 -27 l24 -28 0 -1757 c0 -1073 4 -1812 10 -1897 6 -77 22 -212 37 -300
34 -206 35 -315 6 -371 -15 -27 -261 -274 -706 -707 -376 -366 -696 -682 -711
-701 -15 -20 -39 -62 -54 -94 -24 -51 -27 -70 -30 -192 -3 -148 5 -178 49
-194 27 -9 -12 -18 1198 280 299 74 558 134 575 134 21 0 40 -8 53 -23 12 -12
58 -104 104 -205 45 -100 86 -179 90 -175 4 4 53 93 110 196 56 103 113 196
127 207 45 36 -5 46 1197 -242 231 -55 449 -103 485 -105 58 -4 67 -3 85 17
18 20 20 36 20 174 0 148 -1 152 -30 211 -19 37 -62 93 -115 148 -47 48 -382
341 -745 650 -394 336 -667 576 -680 597 -33 56 -26 180 26 465 l44 240 5
1805 c4 1413 8 1810 17 1827 23 38 63 63 105 63 22 0 132 -23 246 -51 599
-148 1241 -358 1651 -540 445 -199 1410 -729 2581 -1418 178 -105 334 -191
346 -191 12 0 32 8 44 18 21 17 21 20 18 287 l-3 270 -27 59 c-16 32 -42 74
-59 93 -16 19 -290 264 -607 544 -317 280 -596 532 -619 560 l-43 50 0 442 c0
409 -1 445 -18 476 -31 58 -69 71 -205 71 -133 0 -165 -10 -197 -63 -18 -29
-20 -51 -20 -225 0 -222 -9 -262 -57 -262 -15 0 -40 8 -54 18 -14 9 -292 246
-617 526 l-592 509 0 426 c0 386 -2 429 -18 460 -33 66 -58 76 -200 79 -119 3
-129 2 -162 -20 -59 -39 -70 -75 -70 -223 0 -108 -3 -136 -19 -165 -22 -42
-57 -57 -105 -44 -25 6 -209 163 -648 548 -337 296 -624 555 -638 574 l-25 35
-6 926 c-6 944 -9 1013 -50 1296 -106 731 -251 1257 -391 1409 -49 54 -85 63
-159 43z"/>
</g>
</svg>
