<?xml version="1.0" encoding="UTF-8"?>
<svg width="126px" height="41px" viewBox="0 0 126 41" version="1.1" xmlns="http://www.w3.org/2000/svg" xmlns:xlink="http://www.w3.org/1999/xlink">
    <!-- Generator: Sketch 50 (54983) - http://www.bohemiancoding.com/sketch -->
    <title>swim-ai-powered-by-gray</title>
    <desc>Created with Sketch.</desc>
    <defs>
        <polygon id="path-1" points="0 0.018 125.429 0.018 125.429 23.39 0 23.39"></polygon>
        <polygon id="path-3" points="0 0.018 125.429 0.018 125.429 23.39 0 23.39"></polygon>
        <path d="M2.486,10.536 C2.68200098,10.8000013 2.89599884,10.9859995 3.128,11.094 C3.36000116,11.2020005 3.61999856,11.256 3.908,11.256 C4.47600284,11.256 4.91199848,11.054002 5.216,10.65 C5.52000152,10.245998 5.672,9.67000374 5.672,8.922 C5.672,8.52599802 5.63700035,8.18600142 5.567,7.902 C5.49699965,7.61799858 5.39600066,7.38500091 5.264,7.203 C5.13199934,7.02099909 4.97000096,6.88800042 4.778,6.804 C4.58599904,6.71999958 4.36800122,6.678 4.124,6.678 C3.77599826,6.678 3.47100131,6.7579992 3.209,6.918 C2.94699869,7.0780008 2.7060011,7.30399854 2.486,7.596 L2.486,10.536 Z M2.432,6.864 C2.68800128,6.54799842 2.98399832,6.29400096 3.32,6.102 C3.65600168,5.90999904 4.03999784,5.814 4.472,5.814 C4.82400176,5.814 5.14199858,5.88099933 5.426,6.015 C5.71000142,6.14900067 5.951999,6.34699869 6.152,6.609 C6.352001,6.87100131 6.50599946,7.19599806 6.614,7.584 C6.72200054,7.97200194 6.776,8.41799748 6.776,8.922 C6.776,9.37000224 6.7160006,9.78699807 6.596,10.173 C6.4759994,10.5590019 6.30300113,10.8929986 6.077,11.175 C5.85099887,11.4570014 5.57500163,11.6789992 5.249,11.841 C4.92299837,12.0030008 4.55600204,12.084 4.148,12.084 C3.77599814,12.084 3.45700133,12.0210006 3.191,11.895 C2.92499867,11.7689994 2.69000102,11.5940011 2.486,11.37 L2.486,14.058 L1.412,14.058 L1.412,5.922 L2.054,5.922 C2.20600076,5.922 2.29999982,5.99599926 2.336,6.144 L2.432,6.864 Z M10.7,5.826 C11.1440022,5.826 11.5439982,5.89999926 11.9,6.048 C12.2560018,6.19600074 12.5599987,6.40599864 12.812,6.678 C13.0640013,6.95000136 13.2569993,7.27899807 13.391,7.665 C13.5250007,8.05100193 13.592,8.48199762 13.592,8.958 C13.592,9.4380024 13.5250007,9.86999808 13.391,10.254 C13.2569993,10.6380019 13.0640013,10.9659986 12.812,11.238 C12.5599987,11.5100014 12.2560018,11.7189993 11.9,11.865 C11.5439982,12.0110007 11.1440022,12.084 10.7,12.084 C10.2519978,12.084 9.84900179,12.0110007 9.491,11.865 C9.13299821,11.7189993 8.82800126,11.5100014 8.576,11.238 C8.32399874,10.9659986 8.13100067,10.6380019 7.997,10.254 C7.86299933,9.86999808 7.796,9.4380024 7.796,8.958 C7.796,8.48199762 7.86299933,8.05100193 7.997,7.665 C8.13100067,7.27899807 8.32399874,6.95000136 8.576,6.678 C8.82800126,6.40599864 9.13299821,6.19600074 9.491,6.048 C9.84900179,5.89999926 10.2519978,5.826 10.7,5.826 Z M10.7,11.25 C11.300003,11.25 11.7479985,11.049002 12.044,10.647 C12.3400015,10.244998 12.488,9.6840036 12.488,8.964 C12.488,8.23999638 12.3400015,7.67600202 12.044,7.272 C11.7479985,6.86799798 11.300003,6.666 10.7,6.666 C10.3959985,6.666 10.1310011,6.71799948 9.905,6.822 C9.67899887,6.92600052 9.49100075,7.07599902 9.341,7.272 C9.19099925,7.46800098 9.07900037,7.70899857 9.005,7.995 C8.93099963,8.28100143 8.894,8.6039982 8.894,8.964 C8.894,9.6840036 9.04299851,10.244998 9.341,10.647 C9.63900149,11.049002 10.091997,11.25 10.7,11.25 Z M23.234,5.922 L21.266,12 L20.42,12 C20.3159995,12 20.2440002,11.9320007 20.204,11.796 L18.86,7.674 C18.8279998,7.58199954 18.8020001,7.48900047 18.782,7.395 C18.7619999,7.30099953 18.7420001,7.20800046 18.722,7.116 C18.7019999,7.20800046 18.6820001,7.30099953 18.662,7.395 C18.6419999,7.48900047 18.6160002,7.58399952 18.584,7.68 L17.216,11.796 C17.1799998,11.9320007 17.1000006,12 16.976,12 L16.172,12 L14.204,5.922 L15.044,5.922 C15.1280004,5.922 15.1989997,5.94399978 15.257,5.988 C15.3150003,6.03200022 15.3539999,6.0839997 15.374,6.144 L16.538,10.056 C16.6060003,10.3440014 16.6599998,10.6159987 16.7,10.872 C16.7360002,10.7399993 16.7729998,10.6060007 16.811,10.47 C16.8490002,10.3339993 16.8899998,10.1960007 16.934,10.056 L18.218,6.12 C18.2380001,6.0599997 18.2729998,6.0100002 18.323,5.97 C18.3730003,5.9299998 18.4339996,5.91 18.506,5.91 L18.974,5.91 C19.0540004,5.91 19.1199997,5.9299998 19.172,5.97 C19.2240003,6.0100002 19.2599999,6.0599997 19.28,6.12 L20.534,10.056 C20.5780002,10.1960007 20.6179998,10.3339993 20.654,10.47 C20.6900002,10.6060007 20.7239998,10.7399993 20.756,10.872 C20.7760001,10.7399993 20.8009999,10.6070007 20.831,10.473 C20.8610001,10.3389993 20.8939998,10.2000007 20.93,10.056 L22.118,6.144 C22.1380001,6.07999968 22.1759997,6.02700021 22.232,5.985 C22.2880003,5.94299979 22.3539996,5.922 22.43,5.922 L23.234,5.922 Z M28.262,8.298 C28.262,8.04999876 28.2270004,7.82300103 28.157,7.617 C28.0869996,7.41099897 27.9850007,7.23300075 27.851,7.083 C27.7169993,6.93299925 27.554001,6.81700041 27.362,6.735 C27.169999,6.65299959 26.9520012,6.612 26.708,6.612 C26.1959974,6.612 25.7910015,6.76099851 25.493,7.059 C25.1949985,7.35700149 25.0100004,7.76999736 24.938,8.298 L28.262,8.298 Z M29.126,11.148 C28.9939993,11.3080008 28.8360009,11.4469994 28.652,11.565 C28.4679991,11.6830006 28.2710011,11.7799996 28.061,11.856 C27.850999,11.9320004 27.6340011,11.9889998 27.41,12.027 C27.1859989,12.0650002 26.9640011,12.084 26.744,12.084 C26.3239979,12.084 25.9370018,12.0130007 25.583,11.871 C25.2289982,11.7289993 24.9230013,11.5210014 24.665,11.247 C24.4069987,10.9729986 24.2060007,10.634002 24.062,10.23 C23.9179993,9.82599798 23.846,9.36200262 23.846,8.838 C23.846,8.41399788 23.9109994,8.01800184 24.041,7.65 C24.1710007,7.28199816 24.3579988,6.96300135 24.602,6.693 C24.8460012,6.42299865 25.1439982,6.21100077 25.496,6.057 C25.8480018,5.90299923 26.2439978,5.826 26.684,5.826 C27.0480018,5.826 27.3849985,5.88699939 27.695,6.009 C28.0050016,6.13100061 28.2729989,6.30699885 28.499,6.537 C28.7250011,6.76700115 28.9019994,7.05099831 29.03,7.389 C29.1580006,7.72700169 29.222,8.11199784 29.222,8.544 C29.222,8.71200084 29.2040002,8.82399972 29.168,8.88 C29.1319998,8.93600028 29.0640005,8.964 28.964,8.964 L24.902,8.964 C24.9140001,9.34800192 24.9669995,9.68199858 25.061,9.966 C25.1550005,10.2500014 25.2859992,10.486999 25.454,10.677 C25.6220008,10.8670009 25.8219988,11.0089995 26.054,11.103 C26.2860012,11.1970005 26.5459986,11.244 26.834,11.244 C27.1020013,11.244 27.332999,11.2130003 27.527,11.151 C27.721001,11.0889997 27.8879993,11.0220004 28.028,10.95 C28.1680007,10.8779996 28.2849995,10.8110003 28.379,10.749 C28.4730005,10.6869997 28.5539997,10.656 28.622,10.656 C28.7100004,10.656 28.7779998,10.6899997 28.826,10.758 L29.126,11.148 Z M31.544,7.14 C31.736001,6.72399792 31.9719986,6.39900117 32.252,6.165 C32.5320014,5.93099883 32.873998,5.814 33.278,5.814 C33.4060006,5.814 33.5289994,5.82799986 33.647,5.856 C33.7650006,5.88400014 33.8699995,5.9279997 33.962,5.988 L33.884,6.786 C33.8599999,6.8860005 33.8000005,6.936 33.704,6.936 C33.6479997,6.936 33.5660005,6.92400012 33.458,6.9 C33.3499995,6.87599988 33.2280007,6.864 33.092,6.864 C32.899999,6.864 32.7290007,6.89199972 32.579,6.948 C32.4289993,7.00400028 32.2950006,7.08699945 32.177,7.197 C32.0589994,7.30700055 31.9530005,7.44299919 31.859,7.605 C31.7649995,7.76700081 31.6800004,7.95199896 31.604,8.16 L31.604,12 L30.53,12 L30.53,5.922 L31.142,5.922 C31.2580006,5.922 31.3379998,5.94399978 31.382,5.988 C31.4260002,6.03200022 31.4559999,6.10799946 31.472,6.216 L31.544,7.14 Z M38.72,8.298 C38.72,8.04999876 38.6850004,7.82300103 38.615,7.617 C38.5449997,7.41099897 38.4430007,7.23300075 38.309,7.083 C38.1749993,6.93299925 38.012001,6.81700041 37.82,6.735 C37.627999,6.65299959 37.4100012,6.612 37.166,6.612 C36.6539974,6.612 36.2490015,6.76099851 35.951,7.059 C35.6529985,7.35700149 35.4680004,7.76999736 35.396,8.298 L38.72,8.298 Z M39.584,11.148 C39.4519993,11.3080008 39.2940009,11.4469994 39.11,11.565 C38.9259991,11.6830006 38.7290011,11.7799996 38.519,11.856 C38.308999,11.9320004 38.0920011,11.9889998 37.868,12.027 C37.6439989,12.0650002 37.4220011,12.084 37.202,12.084 C36.7819979,12.084 36.3950018,12.0130007 36.041,11.871 C35.6869982,11.7289993 35.3810013,11.5210014 35.123,11.247 C34.8649987,10.9729986 34.6640007,10.634002 34.52,10.23 C34.3759993,9.82599798 34.304,9.36200262 34.304,8.838 C34.304,8.41399788 34.3689993,8.01800184 34.499,7.65 C34.6290006,7.28199816 34.8159988,6.96300135 35.06,6.693 C35.3040012,6.42299865 35.6019982,6.21100077 35.954,6.057 C36.3060018,5.90299923 36.7019978,5.826 37.142,5.826 C37.5060018,5.826 37.8429984,5.88699939 38.153,6.009 C38.4630016,6.13100061 38.7309989,6.30699885 38.957,6.537 C39.1830011,6.76700115 39.3599994,7.05099831 39.488,7.389 C39.6160006,7.72700169 39.68,8.11199784 39.68,8.544 C39.68,8.71200084 39.6620002,8.82399972 39.626,8.88 C39.5899998,8.93600028 39.5220005,8.964 39.422,8.964 L35.36,8.964 C35.3720001,9.34800192 35.4249995,9.68199858 35.519,9.966 C35.6130005,10.2500014 35.7439992,10.486999 35.912,10.677 C36.0800008,10.8670009 36.2799988,11.0089995 36.512,11.103 C36.7440012,11.1970005 37.0039986,11.244 37.292,11.244 C37.5600013,11.244 37.790999,11.2130003 37.985,11.151 C38.179001,11.0889997 38.3459993,11.0220004 38.486,10.95 C38.6260007,10.8779996 38.7429995,10.8110003 38.837,10.749 C38.9310005,10.6869997 39.0119997,10.656 39.08,10.656 C39.1680004,10.656 39.2359998,10.6899997 39.284,10.758 L39.584,11.148 Z M44.948,7.368 C44.747999,7.09999866 44.5320012,6.91300053 44.3,6.807 C44.0679988,6.70099947 43.8080014,6.648 43.52,6.648 C42.9559972,6.648 42.5220015,6.84999798 42.218,7.254 C41.9139985,7.65800202 41.762,8.23399626 41.762,8.982 C41.762,9.37800198 41.7959997,9.71699859 41.864,9.999 C41.9320003,10.2810014 42.0319993,10.5129991 42.164,10.695 C42.2960007,10.8770009 42.457999,11.0099996 42.65,11.094 C42.842001,11.1780004 43.0599988,11.22 43.304,11.22 C43.6560018,11.22 43.9629987,11.1400008 44.225,10.98 C44.4870013,10.8199992 44.7279989,10.5940015 44.948,10.302 L44.948,7.368 Z M46.016,3.162 L46.016,12 L45.38,12 C45.2279992,12 45.1320002,11.9260007 45.092,11.778 L44.996,11.04 C44.7359987,11.3520016 44.4400017,11.603999 44.108,11.796 C43.7759983,11.988001 43.3920022,12.084 42.956,12.084 C42.6079983,12.084 42.2920014,12.0170007 42.008,11.883 C41.7239986,11.7489993 41.482001,11.5520013 41.282,11.292 C41.081999,11.0319987 40.9280005,10.7080019 40.82,10.32 C40.7119995,9.93199806 40.658,9.48600252 40.658,8.982 C40.658,8.53399776 40.7179994,8.11700193 40.838,7.731 C40.9580006,7.34499807 41.1299989,7.01000142 41.354,6.726 C41.5780011,6.44199858 41.8529984,6.21900081 42.179,6.057 C42.5050016,5.89499919 42.871998,5.814 43.28,5.814 C43.6520019,5.814 43.9709987,5.87699937 44.237,6.003 C44.5030013,6.12900063 44.739999,6.30399888 44.948,6.528 L44.948,3.162 L46.016,3.162 Z M51.854,10.536 C52.050001,10.8000013 52.2649988,10.9859995 52.499,11.094 C52.7330012,11.2020005 52.9899986,11.256 53.27,11.256 C53.8420029,11.256 54.2799985,11.054002 54.584,10.65 C54.8880015,10.245998 55.04,9.644004 55.04,8.844 C55.04,8.09999628 54.9050014,7.55300175 54.635,7.203 C54.3649987,6.85299825 53.9800025,6.678 53.48,6.678 C53.1319983,6.678 52.8290013,6.7579992 52.571,6.918 C52.3129987,7.0780008 52.0740011,7.30399854 51.854,7.596 L51.854,10.536 Z M51.854,6.798 C52.1100013,6.50199852 52.3989984,6.26600088 52.721,6.09 C53.0430016,5.91399912 53.4139979,5.826 53.834,5.826 C54.1900018,5.826 54.5109986,5.89399932 54.797,6.03 C55.0830014,6.16600068 55.325999,6.36299871 55.526,6.621 C55.726001,6.87900129 55.8789995,7.19199816 55.985,7.56 C56.0910005,7.92800184 56.144,8.3419977 56.144,8.802 C56.144,9.29400246 56.0840006,9.74199798 55.964,10.146 C55.8439994,10.550002 55.6710011,10.8949986 55.445,11.181 C55.2189989,11.4670014 54.9440016,11.6889992 54.62,11.847 C54.2959984,12.0050008 53.932002,12.084 53.528,12.084 C53.127998,12.084 52.7910014,12.0090008 52.517,11.859 C52.2429986,11.7089992 52.004001,11.4960014 51.8,11.22 L51.746,11.772 C51.7139998,11.9240008 51.6220008,12 51.47,12 L50.78,12 L50.78,3.162 L51.854,3.162 L51.854,6.798 Z M62.588,5.922 L59.198,13.794 C59.1619998,13.8740004 59.1170003,13.9379998 59.063,13.986 C59.0089997,14.0340002 58.9260006,14.058 58.814,14.058 L58.022,14.058 L59.132,11.646 L56.624,5.922 L57.548,5.922 C57.6400005,5.922 57.7129997,5.94499977 57.767,5.991 C57.8210003,6.03700023 57.8579999,6.08799972 57.878,6.144 L59.504,9.972 C59.5680003,10.1400008 59.6219998,10.3159991 59.666,10.5 C59.7220003,10.3119991 59.7819997,10.1340008 59.846,9.966 L61.424,6.144 C61.4480001,6.07999968 61.4889997,6.02700021 61.547,5.985 C61.6050003,5.94299979 61.6699996,5.922 61.742,5.922 L62.588,5.922 Z" id="path-5"></path>
    </defs>
    <g id="Page-1" stroke="none" stroke-width="1" fill="none" fill-rule="evenodd">
        <g id="swim-ai-powered-by-gray" transform="translate(0.000000, -3.000000)">
            <g id="Group" transform="translate(0.000000, 20.000000)">
                <g id="Clipped">
                    <mask id="mask-2" fill="white">
                        <use xlink:href="#path-1"></use>
                    </mask>
                    <g id="a"></g>
                    <path d="M60.398,0.018 L60.398,23.4 L65.044,23.4 L65.044,4.695 L69.69,4.695 L69.69,23.399 L74.336,23.399 L74.336,4.695 L78.982,4.695 L78.982,23.399 L83.628,23.399 L83.628,0.02 L60.398,0.02 L60.398,0.018 Z M51.106,23.39 L55.752,23.39 L55.752,0.019 L51.106,0.019 L51.106,23.39 Z M41.814,18.724 L37.168,18.724 L37.168,0.019 L32.522,0.019 L32.522,18.724 L27.876,18.724 L27.876,0.019 L23.23,0.019 L23.23,23.4 L46.46,23.4 L46.46,0.019 L41.814,0.019 L41.814,18.724 Z M18.584,0.018 L0,0.018 L0,14.048 L13.938,14.048 L13.938,18.723 L4.646,18.723 L4.646,16.385 L0,16.385 L0,23.4 L18.584,23.4 L18.584,9.371 L4.646,9.371 L4.646,4.695 L13.938,4.695 L13.938,7.033 L18.584,7.033 L18.584,0.018 Z" id="Shape" fill="#9D9EA0" fill-rule="nonzero" mask="url(#mask-2)"></path>
                </g>
                <g id="Clipped">
                    <mask id="mask-4" fill="white">
                        <use xlink:href="#path-3"></use>
                    </mask>
                    <g id="a"></g>
                    <path fill="#9D9EA0" d="M60.398.018V23.4h4.647V4.694h4.646V23.4h4.645V4.694h4.647V23.4h4.646V.018h-23.23M51.107 23.39h4.646V.019h-4.646zM41.814 18.724h-4.646V.019h-4.646v18.705h-4.646V.019H23.23V23.4h23.23V.019h-4.646v18.705M18.584.018H0v14.03h13.938v4.676H4.646v-2.338H0V23.4h18.584V9.371H4.646V4.694h9.292v2.339h4.646V.018M88.26 23.39h4.647v-4.666H88.26zM102.198 9.371h9.293V4.694h-9.293v4.677zM97.553.018V23.4h4.645v-9.352h9.293V23.4h4.646V.018H97.553zM120.783 23.39h4.646V.019h-4.646z" mask="url(#b)"/>
                </g>
            </g>
            <g id="Group" transform="translate(31.000000, 0.000000)">
                <g id="powered-by">
                    <use fill="#000000" xlink:href="#path-5"></use>
                    <use fill="#9D9EA0" xlink:href="#path-5"></use>
                </g>
            </g>
        </g>
    </g>
</svg>
